<svg width="14" height="16" viewBox="0 0 14 16" fill="none" xmlns="http://www.w3.org/2000/svg">
<g clip-path="url(#clip0_11_9)">
<path d="M13.276 14.658C13.276 14.8145 13.214 14.9646 13.1037 15.0756C12.9933 15.1865 12.8435 15.2492 12.687 15.25H0.839001C0.682595 15.2489 0.53294 15.1861 0.422623 15.0753C0.312306 14.9644 0.25026 14.8144 0.25 14.658C0.25 13.8027 0.418464 12.9558 0.745773 12.1656C1.07308 11.3754 1.55282 10.6574 2.15761 10.0526C2.7624 9.44783 3.48039 8.96808 4.27058 8.64077C5.06078 8.31347 5.9077 8.145 6.763 8.145C7.6183 8.145 8.46522 8.31347 9.25542 8.64077C10.0456 8.96808 10.7636 9.44783 11.3684 10.0526C11.9732 10.6574 12.4529 11.3754 12.7802 12.1656C13.1075 12.9558 13.276 13.8027 13.276 14.658ZM12.881 14.658C12.881 13.0353 12.2364 11.479 11.0889 10.3316C9.94149 9.18413 8.38523 8.5395 6.7625 8.5395C5.13977 8.5395 3.58351 9.18413 2.43607 10.3316C1.28862 11.479 0.644001 13.0353 0.644001 14.658C0.643985 14.7102 0.664369 14.7603 0.700802 14.7977C0.737234 14.8351 0.786829 14.8567 0.839001 14.858H12.687C12.7392 14.8567 12.7888 14.8351 12.8252 14.7977C12.8616 14.7603 12.881 14.7102 12.881 14.658ZM6.763 7.75C6.02132 7.75 5.2963 7.53007 4.67961 7.11801C4.06293 6.70596 3.58228 6.12029 3.29845 5.43506C3.01462 4.74984 2.94036 3.99584 3.08506 3.26841C3.22975 2.54098 3.5869 1.8728 4.11135 1.34835C4.6358 0.823905 5.30398 0.466752 6.03141 0.322057C6.75884 0.177362 7.51284 0.251624 8.19806 0.535453C8.88329 0.819282 9.46896 1.29993 9.88101 1.91661C10.2931 2.5333 10.513 3.25832 10.513 4C10.513 4.99456 10.1179 5.94839 9.41465 6.65165C8.71139 7.35491 7.75756 7.75 6.763 7.75ZM6.763 7.355C7.42656 7.355 8.07521 7.15824 8.62694 6.78958C9.17867 6.42093 9.60869 5.89695 9.86262 5.2839C10.1165 4.67086 10.183 3.99628 10.0535 3.34547C9.92408 2.69467 9.60455 2.09686 9.13534 1.62766C8.66614 1.15845 8.06833 0.83892 7.41753 0.709466C6.76672 0.580013 6.09214 0.646454 5.4791 0.900386C4.86605 1.15432 4.34207 1.58434 3.97342 2.13606C3.60477 2.68779 3.408 3.33644 3.408 4C3.408 4.8898 3.76147 5.74316 4.39066 6.37235C5.01984 7.00153 5.8732 7.355 6.763 7.355Z" fill="white" stroke="white" stroke-width="0.5"/>
</g>
<defs>
<clipPath id="clip0_11_9">
<rect width="13.526" height="15.5" fill="white"/>
</clipPath>
</defs>
</svg>
