<svg width="19" height="14" viewBox="0 0 19 14" fill="none" xmlns="http://www.w3.org/2000/svg">
<g clip-path="url(#clip0_11_27)">
<path d="M1.90698 0.0999985C1.42806 0.100527 0.968906 0.29094 0.630171 0.629487C0.291436 0.968035 0.10077 1.42709 0.0999756 1.906V11.444C0.100504 11.9233 0.290989 12.3828 0.629696 12.7219C0.968403 13.0609 1.42771 13.2519 1.90698 13.253H16.292C16.7712 13.2522 17.2307 13.0615 17.5695 12.7226C17.9084 12.3837 18.0992 11.9243 18.1 11.445V1.906C18.0989 1.427 17.908 0.967945 17.5691 0.629426C17.2302 0.290907 16.771 0.100527 16.292 0.0999985H1.90698ZM1.90698 0.741998H16.292C16.4453 0.740533 16.5975 0.769625 16.7394 0.827578C16.8814 0.885531 17.0105 0.971183 17.119 1.07954C17.2276 1.18789 17.3134 1.31678 17.3716 1.45867C17.4298 1.60057 17.4592 1.75264 17.458 1.906V3.32H0.741976V1.906C0.74064 1.75268 0.769869 1.60064 0.827955 1.45875C0.886041 1.31686 0.97182 1.18796 1.08028 1.07959C1.18874 0.971227 1.31771 0.885558 1.45965 0.827594C1.60159 0.76963 1.75366 0.740531 1.90698 0.741998ZM0.741976 3.963H17.458V5.563H0.741976V3.963ZM0.741976 6.204H17.458V11.444C17.4592 11.5975 17.4298 11.7496 17.3717 11.8916C17.3135 12.0336 17.2276 12.1626 17.1191 12.2712C17.0106 12.3797 16.8816 12.4655 16.7396 12.5237C16.5976 12.5819 16.4454 12.6112 16.292 12.61H1.90698C1.75348 12.6113 1.60126 12.5821 1.45919 12.524C1.31713 12.4658 1.18806 12.38 1.07952 12.2715C0.970977 12.1629 0.88514 12.0338 0.827016 11.8918C0.768891 11.7497 0.739642 11.5975 0.740976 11.444L0.741976 6.204ZM2.70598 8.323C2.62084 8.323 2.53919 8.35682 2.47899 8.41702C2.4188 8.47722 2.38498 8.55886 2.38498 8.644C2.38498 8.72913 2.4188 8.81078 2.47899 8.87098C2.53919 8.93118 2.62084 8.965 2.70598 8.965H6.75098C6.83611 8.965 6.91776 8.93118 6.97796 8.87098C7.03816 8.81078 7.07198 8.72913 7.07198 8.644C7.07198 8.55886 7.03816 8.47722 6.97796 8.41702C6.91776 8.35682 6.83611 8.323 6.75098 8.323H2.70598ZM2.70598 10.058C2.62084 10.058 2.53919 10.0918 2.47899 10.152C2.4188 10.2122 2.38498 10.2939 2.38498 10.379C2.38498 10.4641 2.4188 10.5458 2.47899 10.606C2.53919 10.6662 2.62084 10.7 2.70598 10.7H4.43198C4.51711 10.7 4.59876 10.6662 4.65896 10.606C4.71916 10.5458 4.75298 10.4641 4.75298 10.379C4.75298 10.2939 4.71916 10.2122 4.65896 10.152C4.59876 10.0918 4.51711 10.058 4.43198 10.058H2.70598Z" fill="white" stroke="white" stroke-width="0.2"/>
</g>
<defs>
<clipPath id="clip0_11_27">
<rect width="18.2" height="13.352" fill="white"/>
</clipPath>
</defs>
</svg>
