<svg width="25" height="21" viewBox="0 0 25 21" fill="none" xmlns="http://www.w3.org/2000/svg">
<g clip-path="url(#clip0_6_18)">
<path d="M24.12 16.218C24.1222 15.9095 24.0512 15.6049 23.913 15.3291C23.7747 15.0534 23.573 14.8143 23.3245 14.6315C23.0759 14.4488 22.7876 14.3275 22.4832 14.2777C22.1787 14.2279 21.8668 14.251 21.573 14.345L16.592 15.918L15.468 15.843C15.6498 15.5883 15.7656 15.2925 15.805 14.982C15.8319 14.7454 15.8083 14.5058 15.7357 14.279C15.6631 14.0522 15.5432 13.8434 15.384 13.6663C15.2247 13.4893 15.0297 13.3481 14.8118 13.252C14.5939 13.1559 14.3581 13.1072 14.12 13.109H10.674C9.29858 12.1196 7.6493 11.5827 5.95499 11.573H4.71899V10.673C4.72206 10.623 4.71446 10.5728 4.6967 10.5259C4.67894 10.4791 4.65143 10.4365 4.61597 10.401C4.58052 10.3656 4.53794 10.3381 4.49105 10.3203C4.44416 10.3025 4.39404 10.2949 4.34399 10.298H0.524993C0.474769 10.2949 0.424462 10.3026 0.377426 10.3204C0.33039 10.3383 0.287706 10.366 0.25222 10.4017C0.216734 10.4374 0.189261 10.4802 0.171633 10.5273C0.154005 10.5745 0.146628 10.6248 0.149993 10.675V18.465C0.146924 18.515 0.154522 18.5652 0.172282 18.6121C0.190042 18.659 0.21756 18.7015 0.253013 18.737C0.288467 18.7724 0.331047 18.8 0.377935 18.8177C0.424823 18.8355 0.474948 18.8431 0.524993 18.84H4.34499C4.39504 18.8431 4.44516 18.8355 4.49205 18.8177C4.53894 18.8 4.58152 18.7724 4.61697 18.737C4.65243 18.7015 4.67994 18.659 4.6977 18.6121C4.71546 18.5652 4.72306 18.515 4.71999 18.465V17.828L12.136 20.038C12.417 20.112 12.7064 20.1496 12.997 20.15C13.328 20.1581 13.6578 20.1073 13.971 20L23.859 16.554C23.9326 16.533 23.9975 16.4891 24.0444 16.4287C24.0914 16.3683 24.1178 16.2945 24.12 16.218ZM3.96999 18.09H0.898993V11.049H3.96999V18.09ZM13.708 19.29C13.2588 19.4331 12.7782 19.446 12.322 19.327L4.68199 17.042V12.322H5.91799C7.48652 12.3245 9.01165 12.8373 10.263 13.783C10.3314 13.8246 10.4083 13.8503 10.488 13.858H14.088C14.2154 13.86 14.3411 13.8875 14.4578 13.9388C14.5744 13.9901 14.6797 14.0642 14.7673 14.1567C14.8549 14.2493 14.9231 14.3584 14.9679 14.4777C15.0127 14.597 15.0332 14.7241 15.0282 14.8514C15.0232 14.9787 14.9928 15.1038 14.9388 15.2192C14.8847 15.3346 14.8082 15.4381 14.7136 15.5235C14.619 15.6089 14.5083 15.6745 14.388 15.7165C14.2677 15.7585 14.1402 15.776 14.013 15.768L10.53 15.506C10.4808 15.5011 10.4311 15.5059 10.3838 15.5202C10.3365 15.5344 10.2925 15.5579 10.2542 15.5892C10.2159 15.6205 10.1842 15.659 10.1609 15.7025C10.1375 15.7461 10.1229 15.7938 10.118 15.843C10.1131 15.8922 10.1179 15.9419 10.1321 15.9892C10.1464 16.0365 10.1699 16.0805 10.2012 16.1188C10.2325 16.1571 10.271 16.1888 10.3145 16.2121C10.3581 16.2355 10.4058 16.2501 10.455 16.255L16.522 16.704H16.672L21.728 15.094C21.8903 15.0424 22.0616 15.0251 22.231 15.0431C22.4004 15.0612 22.5642 15.1142 22.712 15.1988C22.8599 15.2833 22.9886 15.3977 23.0899 15.5346C23.1913 15.6715 23.2632 15.8279 23.301 15.994L13.708 19.29Z" fill="white" stroke="white" stroke-width="0.3"/>
<path d="M13.821 12.285H13.854C15.4593 12.2731 16.9946 11.6259 18.124 10.485C19.2484 9.33284 19.8797 7.78792 19.884 6.178C19.8866 5.38178 19.7286 4.5932 19.4193 3.8595C19.11 3.1258 18.6558 2.46205 18.084 1.908C16.9463 0.78436 15.413 0.152343 13.814 0.148003H13.777C12.9802 0.150432 12.1917 0.309778 11.4565 0.616943C10.7213 0.924108 10.0537 1.37308 9.49204 1.93821C8.35763 3.07956 7.72309 4.6248 7.72799 6.234C7.7329 7.8432 8.37686 9.38455 9.51821 10.519C10.6596 11.6534 12.2048 12.2879 13.814 12.283L13.821 12.285ZM13.783 0.899003H13.82C15.221 0.902275 16.5652 1.45357 17.565 2.435C18.313 3.17443 18.825 4.11908 19.0362 5.14949C19.2473 6.17989 19.1482 7.24977 18.7513 8.22383C18.3544 9.19789 17.6775 10.0324 16.8064 10.6218C15.9352 11.2111 14.9088 11.529 13.857 11.535H13.82C12.4094 11.5399 11.0547 10.9843 10.0538 9.99033C9.05295 8.99639 8.4879 7.64556 8.48299 6.235C8.47809 4.82445 9.03372 3.46972 10.0277 2.46884C11.0216 1.46796 12.3724 0.903909 13.783 0.899003Z" fill="white" stroke="white" stroke-width="0.3"/>
<path d="M12.059 3.16601H15.977V3.174C15.8576 3.37127 15.727 3.56159 15.586 3.74401H14.539C14.687 3.92098 14.7878 4.13255 14.8319 4.359H15.948C15.9613 4.359 15.968 4.36433 15.968 4.37499C15.718 4.74966 15.5903 4.937 15.585 4.937H14.86C14.8224 5.18844 14.7276 5.42792 14.583 5.63702C14.4173 5.86537 14.1973 6.04888 13.943 6.17101C13.6044 6.34278 13.2315 6.43607 12.852 6.44399V6.45202C12.852 6.47935 13.638 7.41267 15.21 9.25201H14.173C12.6396 7.46801 11.873 6.57202 11.873 6.56402V6.022L11.881 6.00201C12.0391 6.02256 12.1985 6.03224 12.3579 6.031C13.2159 6.031 13.7493 5.75267 13.958 5.19601C13.9905 5.11562 14.0071 5.02972 14.007 4.94302H11.678C11.6758 4.94336 11.6736 4.94318 11.6715 4.9425C11.6694 4.94181 11.6675 4.94064 11.6659 4.93908C11.6644 4.93752 11.6632 4.93559 11.6625 4.93349C11.6618 4.9314 11.6616 4.92917 11.662 4.92699C11.92 4.55233 12.0517 4.36501 12.057 4.36501H13.906V4.35702C13.7715 4.11869 13.5518 3.94007 13.291 3.85702C13.1024 3.79139 12.9047 3.75561 12.705 3.751H11.67V3.73101C11.9213 3.35434 12.051 3.16601 12.059 3.16601Z" fill="white" stroke="white" stroke-width="0.3"/>
</g>
<defs>
<clipPath id="clip0_6_18">
<rect width="24.27" height="20.3" fill="white"/>
</clipPath>
</defs>
</svg>
